<mxfile host="app.diagrams.net" modified="2024-01-29T03:25:33.794Z" agent="Mozilla/5.0 (Windows NT 10.0; Win64; x64) AppleWebKit/537.36 (KHTML, like Gecko) Chrome/120.0.0.0 Safari/537.36 Edg/120.0.0.0" version="23.0.2" etag="PaPtcv0HYoItvehuxI0r" type="github">
  <diagram name="Page-1" id="NWCBskP0DJdIWngoyVE2">
    <mxGraphModel>
      <root>
        <mxCell id="0" />
        <mxCell id="1" parent="0" />
      </root>
    </mxGraphModel>
  </diagram>
</mxfile>
